Coordinates
version=1
nRows=16
nColumns=22
inDegrees=yes

Units are S.I. units (second, meters, Newtons, ...)
If the header above contains a line with 'inDegrees', this indicates whether rotational values are in degrees (yes) or radians (no).

endheader
time	pelvis_tilt	pelvis_list	pelvis_rotation	pelvis_tx	pelvis_ty	pelvis_tz	hip_flexion_r	hip_adduction_r	hip_rotation_r	knee_angle_r	ankle_angle_r	subtalar_angle_r	hip_flexion_l	hip_adduction_l	hip_rotation_l	knee_angle_l	ankle_angle_l	subtalar_angle_l	lumbar_extension	lumbar_bending	lumbar_rotation
      0.01000000	      4.56986770	     -1.14329494	      3.92836037	      0.69172364	      1.08639343	     -0.34241319	     -3.17418111	      1.37800626	     -4.65950764	    -12.29538123	     10.64919992	     -3.23850614	     -2.27253616	     -1.22810203	     -0.61096384	    -14.73105671	     13.17874743	     -0.53895392	     -4.89845983	     -1.24085772	     -5.57863427
      0.02000000	      4.56314472	     -1.16015130	      3.91335920	      0.69212126	      1.08635894	     -0.34240740	     -3.19440219	      1.39609125	     -4.65188632	    -12.28156096	     10.65105687	     -3.24642594	     -2.29293625	     -1.24675219	     -0.63532002	    -14.72350429	     13.20050000	     -0.53784127	     -4.85867195	     -1.22000081	     -5.58905990
      0.03000000	      4.56643019	     -1.19102066	      3.88231702	      0.69254545	      1.08632519	     -0.34236014	     -3.23009395	      1.43282420	     -4.60460979	    -12.25742234	     10.64576077	     -3.27161539	     -2.31718927	     -1.28186287	     -0.67220905	    -14.73634275	     13.24866370	     -0.53498673	     -4.83195588	     -1.18516548	     -5.58673269
      0.04000000	      4.55870463	     -1.19672716	      3.86007040	      0.69302068	      1.08628108	     -0.34236101	     -3.25206804	      1.43694152	     -4.60257373	    -12.24749901	     10.65160776	     -3.27862380	     -2.34521869	     -1.28619195	     -0.69430840	    -14.72437496	     13.26238343	     -0.53483863	     -4.78890839	     -1.17386963	     -5.60660546
      0.05000000	      4.55068516	     -1.20740903	      3.83229791	      0.69351173	      1.08623234	     -0.34234565	     -3.27880909	      1.44783771	     -4.58677527	    -12.22831012	     10.66111317	     -3.28928949	     -2.37368065	     -1.29650916	     -0.72441841	    -14.71309869	     13.28719030	     -0.53640889	     -4.74512654	     -1.15824472	     -5.62713666
      0.06000000	      4.54213419	     -1.22057656	      3.79738639	      0.69400187	      1.08618254	     -0.34232478	     -3.30515442	      1.46103387	     -4.56288121	    -12.20761828	     10.66830903	     -3.30247855	     -2.40232684	     -1.30889483	     -0.76125847	    -14.70180910	     13.31498630	     -0.53872562	     -4.70289204	     -1.13769788	     -5.64653663
      0.07000000	      4.54044156	     -1.24893988	      3.73647947	      0.69446722	      1.08614095	     -0.34226918	     -3.33981321	      1.49156149	     -4.48672326	    -12.17675045	     10.66304673	     -3.33982627	     -2.43240413	     -1.33782837	     -0.83106210	    -14.70429746	     13.35781465	     -0.54126345	     -4.67411185	     -1.09918271	     -5.63106734
      0.08000000	      4.52662104	     -1.25381706	      3.70179704	      0.69494498	      1.08609487	     -0.34226778	     -3.35591617	      1.49270136	     -4.48314579	    -12.16439676	     10.66713771	     -3.34772612	     -2.46235421	     -1.33931500	     -0.86304987	    -14.67892982	     13.36751879	     -0.54131555	     -4.63075782	     -1.08713472	     -5.65802991
      0.09000000	      4.51106970	     -1.26082764	      3.66177303	      0.69542264	      1.08605142	     -0.34226232	     -3.37557206	      1.49648441	     -4.46372600	    -12.14137118	     10.67323480	     -3.35690870	     -2.49187498	     -1.34325941	     -0.90504975	    -14.65176968	     13.38116582	     -0.54226295	     -4.58599267	     -1.07331605	     -5.67764476
      0.10000000	      4.50634094	     -1.27870417	      3.57882739	      0.69587369	      1.08602336	     -0.34219093	     -3.40461911	      1.51310054	     -4.36808767	    -12.11237533	     10.66417136	     -3.39459381	     -2.53503407	     -1.35962860	     -1.00231827	    -14.62654894	     13.39901178	     -0.54100716	     -4.55911739	     -1.04990831	     -5.63926552
      0.11000000	      4.48890469	     -1.28209271	      3.54662884	      0.69632959	      1.08598092	     -0.34220657	     -3.42251980	      1.51174850	     -4.36585954	    -12.08781958	     10.67063561	     -3.39964546	     -2.56418581	     -1.35929661	     -1.03495638	    -14.59334384	     13.40780214	     -0.54103386	     -4.51694488	     -1.04247188	     -5.66171263
      0.12000000	      4.47140088	     -1.28637191	      3.50754252	      0.69677749	      1.08593991	     -0.34220502	     -3.44226289	      1.51230049	     -4.34779464	    -12.05767794	     10.67441938	     -3.40605644	     -2.59698724	     -1.36073430	     -1.07819331	    -14.55365278	     13.41701932	     -0.54099825	     -4.47646358	     -1.03584841	     -5.67530557
      0.13000000	      4.46801416	     -1.29366818	      3.43096622	      0.69719949	      1.08592312	     -0.34215578	     -3.47956500	      1.51705190	     -4.25515495	    -12.01599141	     10.66588165	     -3.42849043	     -2.64878696	     -1.36486696	     -1.16473355	    -14.51163549	     13.42223027	     -0.53681435	     -4.45795646	     -1.02517143	     -5.63433154
      0.14000000	      4.45075198	     -1.29762780	      3.40099400	      0.69760140	      1.08588021	     -0.34217399	     -3.49320688	      1.51593151	     -4.25792068	    -11.99412163	     10.67161780	     -3.43324334	     -2.67927744	     -1.36600398	     -1.19984601	    -14.47065145	     13.43151873	     -0.53569914	     -4.42565530	     -1.01894118	     -5.65662432
      0.15000000	      4.43263978	     -1.30146185	      3.36642721	      0.69799489	      1.08583670	     -0.34218637	     -3.51032459	      1.51540079	     -4.24224070	    -11.96294037	     10.67632894	     -3.43887035	     -2.71096167	     -1.36659347	     -1.24199274	    -14.42537839	     13.44134508	     -0.53323464	     -4.39270555	     -1.01345984	     -5.66921723
      0.16000000	      4.42275899	     -1.30758575	      3.29925491	      0.69836100	      1.08580957	     -0.34216771	     -3.53807997	      1.51706031	     -4.15961701	    -11.92189668	     10.67326844	     -3.45512386	     -2.75439774	     -1.36792314	     -1.31780326	    -14.37867242	     13.44862131	     -0.52112789	     -4.37423106	     -1.00170419	     -5.63646148
